<?xml version="1.0" standalone="no"?><!DOCTYPE svg PUBLIC "-//W3C//DTD SVG 1.1//EN" "http://www.w3.org/Graphics/SVG/1.1/DTD/svg11.dtd"><svg t="1644319565733" class="icon" viewBox="0 0 1024 1024" version="1.1" xmlns="http://www.w3.org/2000/svg" p-id="16063" xmlns:xlink="http://www.w3.org/1999/xlink" width="200" height="200"><defs><style type="text/css"></style></defs><path d="M512 51.2c254.4896 0 460.8 206.3104 460.8 460.8s-206.3104 460.8-460.8 460.8S51.2 766.4896 51.2 512 257.5104 51.2 512 51.2z m-89.3952 484.3264c45.9776-64.1024 19.1744-144.7936 0-177.1264L294.4 518.656c7.3728 5.632 53.0432 25.3184 128.2048 16.8704z m62.6432-72.2432c-7.2448 54.2464-36.0704 99.5072-45.7984 116.1216h58.2912v45.568h-58.2656c-11.1104-1.3568-35.8144-12.416-45.824-45.568-39.936-3.328-99.8912-1.3824-124.8512 0 2.7648 45.5936 31.6416 136.8064 124.8768 136.8064h216.448c19.456 2.7392 59.392-3.0208 79.104-41.472 22.656-44.288 67.968-80.1536 91.5712-95.3344v-29.056c-22.1952 1.3824-74.9312 9.1392-108.2368 29.056-41.6256 24.832-37.4528 45.568-83.2512 45.568-36.608 0-43.008-2.7392-41.6-4.1216v-41.472h33.28c13.8752-5.504 46.6176-29.0304 66.6112-78.7712 24.96-62.1824-37.4784-132.6848-99.8912-174.1056v-41.472c0-6.912-5.0176-29.0304-25.0112-29.0304-19.968 0-22.1696 22.0928-20.8128 29.0048v29.056c-11.0848-5.5296-39.1168-16.6144-62.4128-16.6144 20.8128 33.1776 54.1184 103.68 45.7728 165.8368z" p-id="16064" fill="#ffffff"></path></svg>